<?xml version="1.0" standalone="no"?>
<svg xmlns:xlink="http://www.w3.org/1999/xlink" id="wave" style="transform:rotate(0deg); transition: 0.3s" viewBox="0 0 1440 170" version="1.1" xmlns="http://www.w3.org/2000/svg"><defs><linearGradient id="sw-gradient-0" x1="0" x2="0" y1="1" y2="0"><stop stop-color="rgba(13, 110, 253, 1)" offset="0%"/><stop stop-color="rgba(11, 214.494, 255, 1)" offset="100%"/></linearGradient></defs><path style="transform:translate(0, 0px); opacity:1" fill="url(#sw-gradient-0)" d="M0,68L48,56.7C96,45,192,23,288,36.8C384,51,480,102,576,127.5C672,153,768,153,864,153C960,153,1056,153,1152,138.8C1248,125,1344,96,1440,90.7C1536,85,1632,102,1728,102C1824,102,1920,85,2016,85C2112,85,2208,102,2304,93.5C2400,85,2496,51,2592,31.2C2688,11,2784,6,2880,25.5C2976,45,3072,91,3168,116.2C3264,142,3360,147,3456,138.8C3552,130,3648,108,3744,107.7C3840,108,3936,130,4032,138.8C4128,147,4224,142,4320,124.7C4416,108,4512,79,4608,65.2C4704,51,4800,51,4896,65.2C4992,79,5088,108,5184,104.8C5280,102,5376,68,5472,45.3C5568,23,5664,11,5760,31.2C5856,51,5952,102,6048,116.2C6144,130,6240,108,6336,107.7C6432,108,6528,130,6624,127.5C6720,125,6816,96,6864,82.2L6912,68L6912,170L6864,170C6816,170,6720,170,6624,170C6528,170,6432,170,6336,170C6240,170,6144,170,6048,170C5952,170,5856,170,5760,170C5664,170,5568,170,5472,170C5376,170,5280,170,5184,170C5088,170,4992,170,4896,170C4800,170,4704,170,4608,170C4512,170,4416,170,4320,170C4224,170,4128,170,4032,170C3936,170,3840,170,3744,170C3648,170,3552,170,3456,170C3360,170,3264,170,3168,170C3072,170,2976,170,2880,170C2784,170,2688,170,2592,170C2496,170,2400,170,2304,170C2208,170,2112,170,2016,170C1920,170,1824,170,1728,170C1632,170,1536,170,1440,170C1344,170,1248,170,1152,170C1056,170,960,170,864,170C768,170,672,170,576,170C480,170,384,170,288,170C192,170,96,170,48,170L0,170Z"/></svg>